<svg xmlns="http://www.w3.org/2000/svg" viewBox="0 0 120 120" width="100%" height="100%">
  <g transform="translate(60, 60)">
    <circle cx="0" cy="0" r="54" fill="#0b2545" />
    <path d="M -30 27 C -12 39, 24 39, 45 15 C 39 23, 9 29, -21 19 Z" fill="#f59e0b" />
    <path d="M -25 12 C -9 23, 21 23, 39 1 C 33 8, 6 13, -18 6 Z" fill="#f59e0b" />
    <path d="M -20 -3 C -6 7, 18 7, 33 -12 C 27 -5, 3 -1, -14 -7 Z" fill="#f59e0b" />
    <path d="M -15 -17 C -3 -8, 15 -8, 25 -24 C 20 -19, 1 -16, -11 -20 Z" fill="#f59e0b" />
    <path d="M -10 -29 C 0 -23, 12 -23, 18 -35 C 14 -31, 0 -28, -6 -31 Z" fill="#f59e0b" />
  </g>
</svg>
